<?xml version="1.0" encoding="utf-8"?>
<!-- Generator: Adobe Illustrator 27.1.0, SVG Export Plug-In . SVG Version: 6.00 Build 0)  -->
<svg version="1.1" id="Layer_1" xmlns="http://www.w3.org/2000/svg" xmlns:xlink="http://www.w3.org/1999/xlink" x="0px" y="0px"
	 viewBox="0 0 1200 1200" style="enable-background:new 0 0 1200 1200;" xml:space="preserve">
<g>
	<path d="M142.2,552L30,359h64.4v0c0-181.7,147.3-329,329-329h131v91.1H419.8c-131.4,0-238,106.5-238,238v0h64.4L142.2,552z"/>
	<path d="M300,756h54.5v148c-12.8,6.5-27,9.7-41.4,9.4c-16-0.3-31.6-4.9-45.2-13.3c-6.3-5.5-13.2-10.1-20.6-13.8
		c24.7-23.8,38.2-57,37.1-91.3c0-75.5-48-126.1-120-126.1v0c-44.1-0.6-85.2,22.2-108,60l-3.4,5.6l58.6,65.4l5.9-11.3
		c3.6-8.9,9.8-16.6,17.8-22c8-5.4,17.4-8.3,27-8.4c23.2,0,37.7,17,37.7,44.4c0,19.8-6.2,53-48,53l-29,0v89.3h41.8
		c35.2,0,52.9,15.8,52.9,47.2c0,25.7-13,53-49.2,53c-41.8,0-64.6-36-70.6-48l-6-11L30,1056l3.7,5.6c29.3,45.8,79.9,73.5,134.3,73.4
		c78.7,0,134-57.7,136-141c16.5,5.7,34.3,6.2,51,1.4V1170h88.4l0-414H528v414h88.4V756h67.9l0-84H300L300,756z"/>
	<path d="M953.6,801.6h64.4v0c0,147.1-119.3,266.4-266.4,266.4h-25.4v102H737c203.5,0,368.4-164.9,368.4-368.4v0h64.6l-112.3-216.8
		L953.6,801.6z"/>
	<path d="M977.6,30H900L706.2,478.6H811l38.6-98.2h174l40,98.6h106.1L977.6,30z M883,296.4l53.8-141.2L991,296.4H883z"/>
</g>
</svg>
