<?xml version="1.0" encoding="utf-8"?>
<!-- Generator: Adobe Illustrator 27.1.0, SVG Export Plug-In . SVG Version: 6.00 Build 0)  -->
<svg version="1.1" id="Layer_1" xmlns="http://www.w3.org/2000/svg" xmlns:xlink="http://www.w3.org/1999/xlink" x="0px" y="0px"
	 viewBox="0 0 160 26" style="enable-background:new 0 0 160 26;" xml:space="preserve">
<style type="text/css">
	.st0{fill:url(#SVGID_1_);stroke:#FFFFFF;stroke-width:0.25;stroke-miterlimit:10;}
	
		.st1{fill:url(#SVGID_00000128443062751811884340000014306185973322923162_);stroke:#FFFFFF;stroke-width:0.25;stroke-miterlimit:10;}
	.st2{fill:#026E9F;}
	.st3{fill:#008C42;}
</style>
<linearGradient id="SVGID_1_" gradientUnits="userSpaceOnUse" x1="25.4747" y1="1640.7565" x2="1.0615" y2="1640.7565" gradientTransform="matrix(1 0 0 1 0 -1630.1101)">
	<stop  offset="4.262231e-08" style="stop-color:#3CB371"/>
	<stop  offset="1" style="stop-color:#3B71CA"/>
</linearGradient>
<path class="st0" d="M23.3,18.1v-7l-10,5.1c-0.1,0.1-0.3,0.1-0.4,0L1.4,10C1,9.8,1,9.4,1.4,9.2L13,2.9c0.2-0.1,0.3-0.1,0.4,0l12,6.6
	c0.2,0.1,0.3,0.3,0.3,0.3v8.3c0,0.3-0.2,0.4-0.4,0.4h-1.4C23.5,18.5,23.3,18.3,23.3,18.1z"/>
<linearGradient id="SVGID_00000156560145019566976070000001274389902627274414_" gradientUnits="userSpaceOnUse" x1="22.06" y1="1647.8403" x2="3.2194" y2="1647.8403" gradientTransform="matrix(1 0 0 1 0 -1630.1101)">
	<stop  offset="4.262231e-08" style="stop-color:#3CB371"/>
	<stop  offset="1" style="stop-color:#3B71CA"/>
</linearGradient>
<path style="fill:url(#SVGID_00000156560145019566976070000001274389902627274414_);stroke:#FFFFFF;stroke-width:0.25;stroke-miterlimit:10;" d="
	M12.9,23.7l-9.5-5.4c-0.2-0.1-0.3-0.3-0.3-0.3v-5.8c0-0.3,0.3-0.5,0.6-0.3l9.3,5.2l8.4-4.3c0.3-0.2,0.6,0.1,0.6,0.3v5.8
	c0,0.2-0.1,0.3-0.3,0.3l-8.5,4.4C13.1,23.7,13.1,23.7,12.9,23.7z"/>
<g>
	<path class="st2" d="M31.2,19.2V8.5h2.2v9.6h4.1l-0.1,1.1H31.2z"/>
	<path class="st2" d="M42.2,11.9c0.4,0,0.7,0,1,0.1s0.6,0.3,0.9,0.5c0.3,0.2,0.5,0.5,0.7,0.9s0.4,0.9,0.5,1.4V15
		c-0.1,0.1-0.2,0.2-0.3,0.2s-0.3,0.1-0.4,0.2c-0.2,0.1-0.4,0.1-0.7,0.1s-0.6,0.1-0.9,0.1l-2.4,0.2v0.3c0,0.3,0,0.5,0.1,0.8
		s0.2,0.4,0.3,0.6c0.2,0.2,0.3,0.3,0.6,0.4C42,18,42.2,18,42.5,18s0.5,0,0.8-0.1s0.5-0.1,0.8-0.2s0.5-0.1,0.7-0.2s0.4-0.1,0.5-0.2
		l0.2,0.5c-0.2,0.2-0.5,0.3-0.8,0.5s-0.6,0.3-0.9,0.5s-0.7,0.3-1,0.3c-0.4,0.1-0.7,0.1-1.1,0.1c-0.5,0-0.9-0.1-1.3-0.2
		c-0.4-0.1-0.7-0.3-1-0.6c-0.3-0.3-0.5-0.6-0.7-1.1s-0.2-1-0.2-1.6c0-0.7,0.1-1.3,0.3-1.8s0.4-0.9,0.8-1.2c0.3-0.3,0.7-0.5,1.2-0.7
		C41.1,12,41.6,11.9,42.2,11.9z M41.1,13.1c-0.1,0-0.1,0.1-0.2,0.3s-0.1,0.3-0.1,0.4c0,0.2-0.1,0.4-0.1,0.5c0,0.2,0,0.4,0,0.6
		l2.4-0.1c0-0.2-0.1-0.4-0.1-0.6c-0.1-0.2-0.1-0.4-0.2-0.6c-0.1-0.2-0.2-0.3-0.3-0.5s-0.3-0.2-0.5-0.2c-0.1,0-0.3,0-0.4,0
		S41.2,13,41.1,13.1z"/>
	<path class="st2" d="M53.5,18.1c0.2,0,0.4,0,0.7-0.1v0.5c-0.1,0.1-0.2,0.2-0.4,0.3c-0.2,0.1-0.3,0.2-0.5,0.3s-0.4,0.1-0.5,0.2
		s-0.4,0.1-0.6,0.1c-0.2,0-0.4,0-0.5-0.1s-0.3-0.1-0.4-0.2c-0.1-0.1-0.2-0.2-0.3-0.3c-0.1-0.1-0.1-0.2-0.2-0.3
		c-0.2,0.1-0.4,0.2-0.5,0.3c-0.2,0.1-0.4,0.2-0.5,0.3s-0.4,0.2-0.6,0.2c-0.2,0.1-0.4,0.1-0.7,0.1c-0.6,0-1-0.2-1.4-0.5
		c-0.3-0.3-0.5-0.9-0.5-1.6c0-0.4,0.1-0.7,0.2-1c0.1-0.3,0.3-0.5,0.5-0.7s0.5-0.3,0.9-0.4s0.8-0.1,1.3-0.2h1.3v-1
		c0-0.3-0.1-0.5-0.2-0.6c-0.2-0.1-0.4-0.2-0.8-0.2c-0.3,0-0.6,0-0.9,0.1c-0.4,0.1-0.7,0.2-1.1,0.3l-0.3-0.7c0.3-0.1,0.5-0.2,0.8-0.3
		s0.6-0.2,0.9-0.3c0.3-0.1,0.6-0.1,0.9-0.2c0.3,0,0.6-0.1,0.9-0.1c0.3,0,0.6,0,0.9,0.1c0.3,0.1,0.5,0.2,0.7,0.3s0.3,0.3,0.4,0.6
		c0.1,0.2,0.1,0.5,0.1,0.9V17C52.9,17.7,53.1,18.1,53.5,18.1z M50.8,17.8c0,0,0-0.1,0-0.2s0-0.3,0-0.5s0-0.4,0-0.7
		c0-0.2,0-0.5,0-0.8c-0.5,0-0.9,0-1.2,0.1s-0.4,0.1-0.5,0.2c0,0-0.1,0.1-0.1,0.2s0,0.2-0.1,0.3c0,0.1,0,0.2,0,0.3c0,0.1,0,0.2,0,0.3
		c0,0.3,0,0.6,0.1,0.8c0.1,0.2,0.3,0.3,0.5,0.3s0.5,0,0.7-0.1S50.6,17.9,50.8,17.8z"/>
	<path class="st2" d="M59.8,13.6c-0.2-0.1-0.3-0.1-0.5-0.1s-0.4-0.1-0.5-0.1s-0.2,0-0.3,0s-0.2,0.1-0.3,0.1s-0.2,0.1-0.3,0.2
		c-0.1,0.1-0.2,0.2-0.3,0.3v5.1h-2.1V12h1.9l0.2,1.1l0,0c0.1-0.1,0.1-0.2,0.2-0.3c0.1-0.1,0.2-0.2,0.3-0.3s0.2-0.2,0.3-0.3
		s0.2-0.2,0.3-0.2c0.2-0.1,0.4-0.1,0.6-0.1c0.2,0,0.5,0,0.8,0L59.8,13.6z"/>
	<path class="st2" d="M66.1,19.2v-4.8c0-0.4-0.1-0.7-0.2-0.9s-0.4-0.3-0.7-0.3c-0.1,0-0.3,0-0.4,0s-0.3,0.1-0.4,0.1
		c-0.2,0.1-0.3,0.1-0.5,0.2c-0.1,0.1-0.3,0.2-0.4,0.2v5.4h-2.1V12h1.9l0.2,0.8l0,0c0.1-0.1,0.3-0.2,0.5-0.3s0.4-0.2,0.7-0.3
		c0.2-0.1,0.5-0.2,0.8-0.3s0.5-0.1,0.8-0.1s0.6,0,0.8,0.1c0.3,0.1,0.5,0.2,0.7,0.4s0.3,0.4,0.4,0.7s0.2,0.6,0.2,0.9v5.2h-2.3V19.2z"
		/>
	<path class="st2" d="M73.8,11.9c0.4,0,0.7,0,1,0.1s0.6,0.3,0.9,0.5s0.5,0.5,0.7,0.9s0.4,0.9,0.5,1.4V15c-0.1,0.1-0.2,0.2-0.3,0.2
		s-0.3,0.1-0.4,0.2c-0.2,0.1-0.4,0.1-0.7,0.1s-0.6,0.1-0.9,0.1l-2.4,0.2v0.3c0,0.3,0,0.5,0.1,0.8s0.2,0.4,0.3,0.6
		c0.2,0.2,0.3,0.3,0.6,0.4C73.4,18,73.7,18,74,18s0.5,0,0.8-0.1s0.5-0.1,0.8-0.2s0.5-0.1,0.7-0.2s0.4-0.1,0.5-0.2l0.2,0.5
		c-0.2,0.2-0.5,0.3-0.8,0.5s-0.6,0.3-0.9,0.5s-0.7,0.3-1,0.3c-0.4,0.1-0.7,0.1-1.1,0.1c-0.5,0-0.9-0.1-1.3-0.2s-0.7-0.3-1-0.6
		c-0.3-0.3-0.5-0.6-0.7-1.1s-0.2-1-0.2-1.6c0-0.7,0.1-1.3,0.3-1.8s0.4-0.9,0.8-1.2c0.3-0.3,0.7-0.5,1.2-0.7
		C72.8,12,73.3,11.9,73.8,11.9z M72.8,13.1c-0.1,0-0.1,0.1-0.2,0.3s-0.1,0.3-0.1,0.4c0,0.2-0.1,0.4-0.1,0.5c0,0.2,0,0.4,0,0.6
		l2.4-0.1c0-0.2-0.1-0.4-0.1-0.6c-0.1-0.2-0.1-0.4-0.2-0.6c-0.1-0.2-0.2-0.3-0.3-0.5s-0.3-0.2-0.5-0.2c-0.1,0-0.3,0-0.4,0
		S72.9,13,72.8,13.1z"/>
	<path class="st2" d="M83.2,13.6c-0.2-0.1-0.3-0.1-0.5-0.1s-0.4-0.1-0.5-0.1s-0.2,0-0.3,0c-0.1,0-0.2,0.1-0.3,0.1s-0.2,0.1-0.3,0.2
		c-0.1,0.1-0.2,0.2-0.3,0.3v5.1h-2.1V12h1.9l0.2,1.1l0,0c0.1-0.1,0.1-0.2,0.2-0.3s0.2-0.2,0.3-0.3c0.1-0.1,0.2-0.2,0.3-0.3
		c0.1-0.1,0.2-0.2,0.3-0.2c0.2-0.1,0.4-0.1,0.6-0.1s0.5,0,0.8,0L83.2,13.6z"/>
	<path class="st2" d="M89.9,16.8c0,0.4-0.1,0.7-0.3,1s-0.4,0.5-0.6,0.7c-0.1,0.1-0.3,0.2-0.4,0.3s-0.3,0.2-0.5,0.3
		c-0.2,0.1-0.4,0.1-0.6,0.2c-0.2,0-0.5,0.1-0.8,0.1c-0.5,0-1-0.1-1.5-0.2s-0.8-0.3-1.2-0.5l0.5-1.3c0.2,0.1,0.3,0.2,0.5,0.3
		c0.2,0.1,0.4,0.2,0.6,0.3s0.4,0.2,0.6,0.2c0.2,0.1,0.5,0.1,0.7,0.1s0.3,0,0.4,0s0.2-0.1,0.3-0.1c0.1-0.1,0.1-0.2,0.2-0.3
		c0-0.1,0.1-0.3,0.1-0.5s-0.1-0.4-0.3-0.6c-0.2-0.1-0.4-0.2-0.7-0.3c-0.3-0.1-0.6-0.2-0.9-0.3c-0.3-0.1-0.6-0.2-0.9-0.4
		c-0.3-0.2-0.5-0.4-0.7-0.6c-0.2-0.3-0.3-0.6-0.3-1c0-0.1,0-0.3,0.1-0.4c0-0.1,0.1-0.3,0.2-0.4c0.1-0.1,0.2-0.3,0.3-0.4
		c0.1-0.1,0.2-0.2,0.3-0.3c0.3-0.2,0.6-0.4,0.9-0.5S86.6,12,87,12c0.3,0,0.7,0,1.1,0.1c0.4,0,0.8,0.1,1.1,0.1L89,13.6
		c-0.2-0.1-0.3-0.1-0.5-0.2s-0.4-0.1-0.6-0.2s-0.4-0.1-0.6-0.1s-0.3,0-0.5,0s-0.3,0-0.4,0s-0.2,0-0.2,0.1c-0.1,0-0.1,0.1-0.1,0.2
		c0,0.1,0,0.2,0,0.3c0,0.2,0.1,0.4,0.3,0.5c0.2,0.1,0.4,0.2,0.7,0.3s0.6,0.2,0.9,0.3s0.6,0.2,0.9,0.4s0.5,0.4,0.7,0.6
		C89.8,16.1,89.9,16.4,89.9,16.8z"/>
	<path class="st2" d="M93.8,8.1l-2.2,3.5l-0.9-0.3l1.2-4L93.8,8.1z"/>
</g>
<g>
	<path class="st3" d="M101.8,19.2l-1.3-3.6l-4,0.1l-1.3,3.5h-1.4L98,8.6l2.1-0.4l3.9,11H101.8z M100.2,14.6L98.6,10l-1.7,4.6H100.2z
		"/>
	<path class="st3" d="M110.7,13.6c-0.3-0.1-0.6-0.3-1-0.4c-0.4-0.1-0.8-0.2-1.2-0.2c-0.2,0-0.4,0-0.5,0.1c-0.2,0-0.3,0.1-0.5,0.2
		c-0.1,0.1-0.3,0.3-0.3,0.7c-0.1,0.4-0.1,1-0.1,1.8c0,0.4,0,0.8,0.1,1.1c0.1,0.3,0.2,0.5,0.3,0.7c0.1,0.2,0.3,0.3,0.5,0.4
		s0.4,0.1,0.7,0.1c0.4,0,0.8,0,1.2-0.1c0.4-0.1,0.8-0.2,1.2-0.3l0.2,0.5c-0.4,0.3-0.9,0.6-1.4,0.8c-0.5,0.2-1.1,0.3-1.7,0.3
		c-0.5,0-0.9-0.1-1.3-0.2s-0.7-0.3-1-0.6c-0.3-0.3-0.5-0.6-0.7-1.1c-0.2-0.4-0.2-1-0.2-1.6s0.1-1.2,0.3-1.6c0.2-0.5,0.4-0.9,0.8-1.2
		c0.3-0.3,0.8-0.6,1.2-0.8c0.5-0.2,1.1-0.3,1.7-0.3c0.4,0,0.8,0,1.2,0.1c0.4,0.1,0.8,0.1,1.1,0.2L110.7,13.6z"/>
	<path class="st3" d="M119,18.1c0.2,0,0.4,0,0.7-0.1v0.5c-0.1,0.1-0.2,0.2-0.4,0.3c-0.2,0.1-0.3,0.2-0.5,0.3s-0.4,0.1-0.5,0.2
		c-0.2,0-0.4,0.1-0.6,0.1s-0.4,0-0.5-0.1s-0.3-0.1-0.4-0.2s-0.2-0.2-0.3-0.3s-0.1-0.2-0.2-0.3c-0.2,0.1-0.4,0.2-0.5,0.3
		s-0.4,0.2-0.5,0.3s-0.4,0.2-0.6,0.2c-0.2,0.1-0.4,0.1-0.7,0.1c-0.6,0-1-0.2-1.4-0.5c-0.3-0.3-0.5-0.9-0.5-1.6c0-0.4,0-0.7,0.2-1
		c0.1-0.3,0.3-0.5,0.5-0.7s0.5-0.3,0.9-0.4s0.8-0.1,1.3-0.2h1.3v-1c0-0.3-0.1-0.5-0.2-0.6c-0.2-0.1-0.4-0.2-0.8-0.2
		c-0.3,0-0.6,0-0.9,0.1c-0.4,0.1-0.7,0.2-1.1,0.3l-0.3-0.7c0.3-0.1,0.5-0.2,0.8-0.3s0.6-0.2,0.9-0.3s0.6-0.1,0.9-0.2
		c0.3,0,0.6-0.1,0.9-0.1s0.6,0,0.9,0.1s0.5,0.2,0.7,0.3s0.3,0.3,0.4,0.6s0.1,0.5,0.1,0.9V17C118.4,17.7,118.6,18.1,119,18.1z
		 M116.4,17.8c0,0,0-0.1,0-0.2s0-0.3,0-0.5s0-0.4,0-0.7c0-0.2,0-0.5,0-0.8c-0.5,0-0.9,0-1.2,0.1c-0.3,0.1-0.4,0.1-0.5,0.2
		c0,0-0.1,0.1-0.1,0.2s0,0.2-0.1,0.3c0,0.1,0,0.2,0,0.3s0,0.2,0,0.3c0,0.3,0,0.6,0.1,0.8c0.1,0.2,0.3,0.3,0.5,0.3s0.5,0,0.7-0.1
		S116.1,17.9,116.4,17.8z"/>
	<path class="st3" d="M125.5,12c0-0.1,0-0.2,0-0.3s0-0.2,0-0.3s0-0.2,0-0.2V7.5l2.1-0.4v12.1h-1.4l-0.6-0.7l0,0
		c-0.1,0.1-0.3,0.2-0.5,0.3c-0.2,0.1-0.3,0.2-0.5,0.3c-0.2,0.1-0.4,0.1-0.5,0.2c-0.2,0-0.4,0.1-0.6,0.1c-0.4,0-0.8-0.1-1.1-0.2
		c-0.4-0.1-0.7-0.3-1-0.6c-0.3-0.3-0.5-0.6-0.7-1.1c-0.2-0.4-0.3-1-0.3-1.6s0.1-1.2,0.2-1.6s0.4-0.9,0.7-1.2
		c0.3-0.3,0.7-0.6,1.1-0.8s0.9-0.3,1.5-0.3c0.2,0,0.5,0,0.7,0C125,12,125.2,12,125.5,12z M122.6,15.7c0,0.8,0.1,1.4,0.4,1.8
		s0.7,0.6,1.1,0.6c0.2,0,0.5,0,0.7-0.1s0.4-0.1,0.6-0.2v-4.7c-0.3-0.1-0.7-0.1-1-0.1s-0.6,0-0.8,0.1s-0.4,0.1-0.5,0.2
		c-0.1,0.1-0.2,0.4-0.4,0.8C122.7,14.5,122.6,15,122.6,15.7z"/>
	<path class="st3" d="M133.2,11.9c0.4,0,0.7,0,1,0.1s0.6,0.3,0.9,0.5c0.3,0.2,0.5,0.5,0.7,0.9s0.4,0.9,0.5,1.4V15
		c-0.1,0.1-0.2,0.2-0.3,0.2s-0.3,0.1-0.4,0.2c-0.2,0.1-0.4,0.1-0.7,0.1s-0.6,0.1-0.9,0.1l-2.4,0.2v0.3c0,0.3,0,0.5,0.1,0.8
		c0.1,0.2,0.2,0.4,0.3,0.6c0.2,0.2,0.3,0.3,0.6,0.4s0.5,0.1,0.8,0.1c0.2,0,0.5,0,0.8-0.1c0.3,0,0.5-0.1,0.8-0.2s0.5-0.1,0.7-0.2
		s0.4-0.1,0.5-0.2l0.2,0.5c-0.2,0.2-0.5,0.3-0.8,0.5s-0.6,0.3-0.9,0.5c-0.3,0.1-0.7,0.3-1,0.3c-0.4,0.1-0.7,0.1-1.1,0.1
		c-0.5,0-0.9-0.1-1.3-0.2c-0.4-0.1-0.7-0.3-1-0.6c-0.3-0.3-0.5-0.6-0.7-1.1s-0.2-1-0.2-1.6c0-0.7,0.1-1.3,0.3-1.8s0.4-0.9,0.8-1.2
		c0.3-0.3,0.7-0.5,1.2-0.7C132.2,12,132.7,11.9,133.2,11.9z M132.2,13.1c-0.1,0-0.1,0.1-0.2,0.3s-0.1,0.3-0.1,0.4
		c0,0.2-0.1,0.4-0.1,0.5c0,0.2,0,0.4,0,0.6l2.4-0.1c0-0.2-0.1-0.4-0.1-0.6c-0.1-0.2-0.1-0.4-0.2-0.6c-0.1-0.2-0.2-0.3-0.3-0.5
		c-0.1-0.1-0.3-0.2-0.5-0.2c-0.1,0-0.3,0-0.4,0S132.3,13,132.2,13.1z"/>
	<path class="st3" d="M142.8,19.2v-4.8c0-0.4-0.1-0.7-0.2-0.9c-0.1-0.2-0.4-0.3-0.7-0.3c-0.1,0-0.2,0-0.4,0c-0.1,0-0.3,0.1-0.4,0.1
		c-0.1,0.1-0.3,0.1-0.4,0.2c-0.1,0.1-0.3,0.2-0.4,0.2v5.4h-2.1V12h1.9l0.2,0.8l0,0c0.1-0.1,0.3-0.2,0.5-0.3s0.4-0.2,0.6-0.3
		c0.2-0.1,0.5-0.2,0.7-0.3c0.3-0.1,0.5-0.1,0.7-0.1c0.4,0,0.8,0.1,1.1,0.3s0.6,0.5,0.7,0.8c0.2-0.1,0.3-0.2,0.6-0.3
		c0.2-0.1,0.5-0.2,0.7-0.4c0.3-0.1,0.5-0.2,0.8-0.3s0.5-0.1,0.8-0.1s0.5,0,0.8,0.1c0.2,0.1,0.5,0.2,0.6,0.4c0.2,0.2,0.3,0.4,0.4,0.7
		c0.1,0.3,0.2,0.6,0.2,0.9v5.2h-2.1v-4.8c0-0.4-0.1-0.7-0.2-0.9c-0.1-0.2-0.4-0.3-0.7-0.3c-0.1,0-0.2,0-0.4,0
		c-0.1,0-0.3,0.1-0.4,0.1c-0.1,0.1-0.3,0.1-0.4,0.2c-0.1,0.1-0.3,0.2-0.4,0.2V19h-2.1L142.8,19.2L142.8,19.2z"/>
	<path class="st3" d="M152.9,22.6c-0.4,0.5-0.8,0.8-1.1,1c-0.4,0.2-0.8,0.3-1.2,0.3c-0.2,0-0.4,0-0.7,0s-0.4-0.1-0.6-0.1v-0.7h0.2
		c0.3,0,0.6-0.1,0.9-0.2c0.3-0.1,0.7-0.3,1-0.6c0.2-0.1,0.4-0.3,0.6-0.6c0.2-0.2,0.5-0.5,0.7-0.7c0.2-0.3,0.5-0.5,0.7-0.8
		s0.4-0.6,0.6-0.8c-0.3-0.8-0.6-1.6-0.9-2.3c-0.3-0.7-0.5-1.4-0.8-1.9c-0.2-0.6-0.5-1-0.7-1.4s-0.3-0.6-0.5-0.7
		c-0.1-0.1-0.2-0.2-0.3-0.2s-0.2,0-0.3,0h-0.1v-0.7c0.1,0,0.2,0,0.3-0.1c0.1,0,0.3,0,0.4-0.1c0.2,0,0.3,0,0.4,0c0.1,0,0.3,0,0.4,0
		c0.2,0,0.4,0,0.6,0.1c0.2,0.1,0.3,0.1,0.4,0.3c0.1,0.1,0.3,0.4,0.5,0.7s0.3,0.7,0.5,1.1c0.2,0.4,0.4,0.9,0.6,1.5
		c0.2,0.5,0.4,1.1,0.6,1.7l0,0c0.2-0.4,0.4-0.7,0.6-1.1s0.3-0.7,0.4-1c0.1-0.3,0.1-0.6,0.2-1s0.1-0.7,0.1-1c0-0.1,0-0.2,0-0.3
		s0-0.2,0-0.3s0-0.2-0.1-0.3c0-0.1,0-0.1-0.1-0.2l1.7-0.3c0,0.1,0.1,0.3,0.1,0.5s0.1,0.4,0.1,0.6c0,0.5-0.1,1-0.3,1.5
		s-0.4,1-0.7,1.6c-0.3,0.6-0.6,1-0.9,1.5s-0.7,1-1,1.5s-0.6,0.9-0.8,1.3c-0.2,0.3-0.4,0.6-0.6,0.9c-0.2,0.2-0.4,0.5-0.5,0.7
		C153.3,22.2,153.1,22.4,152.9,22.6z"/>
</g>
</svg>
