<?xml version="1.0" encoding="utf-8"?>
<!-- Generator: Adobe Illustrator 27.1.0, SVG Export Plug-In . SVG Version: 6.00 Build 0)  -->
<svg version="1.1" id="Layer_1" xmlns="http://www.w3.org/2000/svg" xmlns:xlink="http://www.w3.org/1999/xlink" x="0px" y="0px"
	 viewBox="0 0 163.7 26" style="enable-background:new 0 0 163.7 26;" xml:space="preserve">
<style type="text/css">
	.st0{fill:url(#SVGID_1_);stroke:#FFFFFF;stroke-width:0.25;stroke-miterlimit:10;}
	
		.st1{fill:url(#SVGID_00000176756961699728160120000004873889161544707242_);stroke:#FFFFFF;stroke-width:0.25;stroke-miterlimit:10;}
	.st2{fill:#026E9F;}
	.st3{fill:#077A3C;}
</style>
<linearGradient id="SVGID_1_" gradientUnits="userSpaceOnUse" x1="29.6532" y1="-798.0194" x2="1.0549" y2="-798.0194" gradientTransform="matrix(1 0 0 -1 0 -788.2203)">
	<stop  offset="4.262231e-08" style="stop-color:#3CB371"/>
	<stop  offset="1" style="stop-color:#3B71CA"/>
</linearGradient>
<path class="st0" d="M27.1,18.5v-8.2l-11.7,6c-0.1,0.1-0.3,0.1-0.5,0L1.4,9C1,8.8,1,8.3,1.4,8.1l13.6-7.4c0.2-0.1,0.3-0.1,0.5,0
	l14,7.7c0.2,0.1,0.3,0.3,0.3,0.4v9.7c0,0.3-0.2,0.5-0.5,0.5h-1.6C27.3,19,27.1,18.8,27.1,18.5z"/>
<linearGradient id="SVGID_00000031898364348591981560000013326245322361643689_" gradientUnits="userSpaceOnUse" x1="25.6532" y1="-806.3203" x2="3.5827" y2="-806.3203" gradientTransform="matrix(1 0 0 -1 0 -788.2203)">
	<stop  offset="4.262231e-08" style="stop-color:#3CB371"/>
	<stop  offset="1" style="stop-color:#3B71CA"/>
</linearGradient>
<path style="fill:url(#SVGID_00000031898364348591981560000013326245322361643689_);stroke:#FFFFFF;stroke-width:0.25;stroke-miterlimit:10;" d="
	M14.9,25.1L3.8,18.8c-0.2-0.1-0.3-0.3-0.3-0.4v-6.8c0-0.4,0.4-0.6,0.7-0.4l10.9,6.1l9.8-5c0.3-0.2,0.7,0.1,0.7,0.4v6.8
	c0,0.2-0.1,0.4-0.3,0.4l-10,5.2C15.2,25.1,15.1,25.1,14.9,25.1z"/>
<g>
	<path class="st2" d="M35.2,19.2V8.5h2.2v9.6h4.1l-0.1,1.1H35.2z"/>
	<path class="st2" d="M46.2,11.9c0.4,0,0.7,0,1,0.1s0.6,0.3,0.9,0.5c0.3,0.2,0.5,0.5,0.7,0.9s0.4,0.9,0.5,1.4V15
		c-0.1,0.1-0.2,0.2-0.3,0.2s-0.3,0.1-0.4,0.2c-0.2,0.1-0.4,0.1-0.7,0.1s-0.6,0.1-0.9,0.1l-2.4,0.2v0.3c0,0.3,0,0.5,0.1,0.8
		s0.2,0.4,0.3,0.6c0.2,0.2,0.3,0.3,0.6,0.4C46,18,46.2,18,46.5,18s0.5,0,0.8-0.1s0.5-0.1,0.8-0.2s0.5-0.1,0.7-0.2s0.4-0.1,0.5-0.2
		l0.2,0.5c-0.2,0.2-0.5,0.3-0.8,0.5s-0.6,0.3-0.9,0.5s-0.7,0.3-1,0.3c-0.4,0.1-0.7,0.1-1.1,0.1c-0.5,0-0.9-0.1-1.3-0.2
		c-0.4-0.1-0.7-0.3-1-0.6c-0.3-0.3-0.5-0.6-0.7-1.1s-0.2-1-0.2-1.6c0-0.7,0.1-1.3,0.3-1.8s0.4-0.9,0.8-1.2c0.3-0.3,0.7-0.5,1.2-0.7
		C45.1,12,45.6,11.9,46.2,11.9z M45.1,13.1c-0.1,0-0.1,0.1-0.2,0.3s-0.1,0.3-0.1,0.4c0,0.2-0.1,0.4-0.1,0.5c0,0.2,0,0.4,0,0.6
		l2.4-0.1c0-0.2-0.1-0.4-0.1-0.6c-0.1-0.2-0.1-0.4-0.2-0.6c-0.1-0.2-0.2-0.3-0.3-0.5s-0.3-0.2-0.5-0.2c-0.1,0-0.3,0-0.4,0
		S45.2,13,45.1,13.1z"/>
	<path class="st2" d="M57.5,18.1c0.2,0,0.4,0,0.7-0.1v0.5c-0.1,0.1-0.2,0.2-0.4,0.3c-0.2,0.1-0.3,0.2-0.5,0.3s-0.4,0.1-0.5,0.2
		s-0.4,0.1-0.6,0.1c-0.2,0-0.4,0-0.5-0.1s-0.3-0.1-0.4-0.2c-0.1-0.1-0.2-0.2-0.3-0.3c-0.1-0.1-0.1-0.2-0.2-0.3
		c-0.2,0.1-0.4,0.2-0.5,0.3c-0.2,0.1-0.4,0.2-0.5,0.3s-0.4,0.2-0.6,0.2c-0.2,0.1-0.4,0.1-0.7,0.1c-0.6,0-1-0.2-1.4-0.5
		c-0.3-0.3-0.5-0.9-0.5-1.6c0-0.4,0.1-0.7,0.2-1c0.1-0.3,0.3-0.5,0.5-0.7s0.5-0.3,0.9-0.4s0.8-0.1,1.3-0.2h1.3v-1
		c0-0.3-0.1-0.5-0.2-0.6c-0.2-0.1-0.4-0.2-0.8-0.2c-0.3,0-0.6,0-0.9,0.1c-0.4,0.1-0.7,0.2-1.1,0.3l-0.3-0.7c0.3-0.1,0.5-0.2,0.8-0.3
		s0.6-0.2,0.9-0.3c0.3-0.1,0.6-0.1,0.9-0.2c0.3,0,0.6-0.1,0.9-0.1c0.3,0,0.6,0,0.9,0.1c0.3,0.1,0.5,0.2,0.7,0.3s0.3,0.3,0.4,0.6
		c0.1,0.2,0.1,0.5,0.1,0.9V17C56.9,17.7,57.1,18.1,57.5,18.1z M54.8,17.8c0,0,0-0.1,0-0.2s0-0.3,0-0.5s0-0.4,0-0.7
		c0-0.2,0-0.5,0-0.8c-0.5,0-0.9,0-1.2,0.1s-0.4,0.1-0.5,0.2c0,0-0.1,0.1-0.1,0.2s0,0.2-0.1,0.3c0,0.1,0,0.2,0,0.3c0,0.1,0,0.2,0,0.3
		c0,0.3,0,0.6,0.1,0.8c0.1,0.2,0.3,0.3,0.5,0.3s0.5,0,0.7-0.1S54.6,17.9,54.8,17.8z"/>
	<path class="st2" d="M63.8,13.6c-0.2-0.1-0.3-0.1-0.5-0.1s-0.4-0.1-0.5-0.1s-0.2,0-0.3,0s-0.2,0.1-0.3,0.1s-0.2,0.1-0.3,0.2
		c-0.1,0.1-0.2,0.2-0.3,0.3v5.1h-2.1V12h1.9l0.2,1.1l0,0c0.1-0.1,0.1-0.2,0.2-0.3c0.1-0.1,0.2-0.2,0.3-0.3s0.2-0.2,0.3-0.3
		s0.2-0.2,0.3-0.2c0.2-0.1,0.4-0.1,0.6-0.1c0.2,0,0.5,0,0.8,0L63.8,13.6z"/>
	<path class="st2" d="M70.1,19.2v-4.8c0-0.4-0.1-0.7-0.2-0.9s-0.4-0.3-0.7-0.3c-0.1,0-0.3,0-0.4,0s-0.3,0.1-0.4,0.1
		c-0.2,0.1-0.3,0.1-0.5,0.2c-0.1,0.1-0.3,0.2-0.4,0.2v5.4h-2.1V12h1.9l0.2,0.8l0,0c0.1-0.1,0.3-0.2,0.5-0.3s0.4-0.2,0.7-0.3
		c0.2-0.1,0.5-0.2,0.8-0.3s0.5-0.1,0.8-0.1s0.6,0,0.8,0.1c0.3,0.1,0.5,0.2,0.7,0.4s0.3,0.4,0.4,0.7s0.2,0.6,0.2,0.9v5.2h-2.3V19.2z"
		/>
	<path class="st2" d="M77.8,11.9c0.4,0,0.7,0,1,0.1s0.6,0.3,0.9,0.5s0.5,0.5,0.7,0.9s0.4,0.9,0.5,1.4V15c-0.1,0.1-0.2,0.2-0.3,0.2
		s-0.3,0.1-0.4,0.2c-0.2,0.1-0.4,0.1-0.7,0.1s-0.6,0.1-0.9,0.1l-2.4,0.2v0.3c0,0.3,0,0.5,0.1,0.8s0.2,0.4,0.3,0.6
		c0.2,0.2,0.3,0.3,0.6,0.4C77.4,18,77.7,18,78,18s0.5,0,0.8-0.1s0.5-0.1,0.8-0.2s0.5-0.1,0.7-0.2s0.4-0.1,0.5-0.2l0.2,0.5
		c-0.2,0.2-0.5,0.3-0.8,0.5s-0.6,0.3-0.9,0.5s-0.7,0.3-1,0.3c-0.4,0.1-0.7,0.1-1.1,0.1c-0.5,0-0.9-0.1-1.3-0.2s-0.7-0.3-1-0.6
		c-0.3-0.3-0.5-0.6-0.7-1.1s-0.2-1-0.2-1.6c0-0.7,0.1-1.3,0.3-1.8s0.4-0.9,0.8-1.2c0.3-0.3,0.7-0.5,1.2-0.7
		C76.8,12,77.3,11.9,77.8,11.9z M76.8,13.1c-0.1,0-0.1,0.1-0.2,0.3s-0.1,0.3-0.1,0.4c0,0.2-0.1,0.4-0.1,0.5c0,0.2,0,0.4,0,0.6
		l2.4-0.1c0-0.2-0.1-0.4-0.1-0.6c-0.1-0.2-0.1-0.4-0.2-0.6c-0.1-0.2-0.2-0.3-0.3-0.5s-0.3-0.2-0.5-0.2c-0.1,0-0.3,0-0.4,0
		S76.9,13,76.8,13.1z"/>
	<path class="st2" d="M87.2,13.6c-0.2-0.1-0.3-0.1-0.5-0.1s-0.4-0.1-0.5-0.1s-0.2,0-0.3,0c-0.1,0-0.2,0.1-0.3,0.1s-0.2,0.1-0.3,0.2
		c-0.1,0.1-0.2,0.2-0.3,0.3v5.1h-2.1V12h1.9l0.2,1.1l0,0c0.1-0.1,0.1-0.2,0.2-0.3s0.2-0.2,0.3-0.3c0.1-0.1,0.2-0.2,0.3-0.3
		c0.1-0.1,0.2-0.2,0.3-0.2c0.2-0.1,0.4-0.1,0.6-0.1s0.5,0,0.8,0L87.2,13.6z"/>
	<path class="st2" d="M93.9,16.8c0,0.4-0.1,0.7-0.3,1s-0.4,0.5-0.6,0.7c-0.1,0.1-0.3,0.2-0.4,0.3s-0.3,0.2-0.5,0.3
		c-0.2,0.1-0.4,0.1-0.6,0.2c-0.2,0-0.5,0.1-0.8,0.1c-0.5,0-1-0.1-1.5-0.2s-0.8-0.3-1.2-0.5l0.5-1.3c0.2,0.1,0.3,0.2,0.5,0.3
		c0.2,0.1,0.4,0.2,0.6,0.3s0.4,0.2,0.6,0.2c0.2,0.1,0.5,0.1,0.7,0.1s0.3,0,0.4,0s0.2-0.1,0.3-0.1c0.1-0.1,0.1-0.2,0.2-0.3
		c0-0.1,0.1-0.3,0.1-0.5s-0.1-0.4-0.3-0.6c-0.2-0.1-0.4-0.2-0.7-0.3c-0.3-0.1-0.6-0.2-0.9-0.3c-0.3-0.1-0.6-0.2-0.9-0.4
		c-0.3-0.2-0.5-0.4-0.7-0.6c-0.2-0.3-0.3-0.6-0.3-1c0-0.1,0-0.3,0.1-0.4c0-0.1,0.1-0.3,0.2-0.4c0.1-0.1,0.2-0.3,0.3-0.4
		c0.1-0.1,0.2-0.2,0.3-0.3c0.3-0.2,0.6-0.4,0.9-0.5S90.6,12,91,12c0.3,0,0.7,0,1.1,0.1c0.4,0,0.8,0.1,1.1,0.1L93,13.6
		c-0.2-0.1-0.3-0.1-0.5-0.2s-0.4-0.1-0.6-0.2s-0.4-0.1-0.6-0.1s-0.3,0-0.5,0s-0.3,0-0.4,0s-0.2,0-0.2,0.1c-0.1,0-0.1,0.1-0.1,0.2
		c0,0.1,0,0.2,0,0.3c0,0.2,0.1,0.4,0.3,0.5c0.2,0.1,0.4,0.2,0.7,0.3s0.6,0.2,0.9,0.3s0.6,0.2,0.9,0.4s0.5,0.4,0.7,0.6
		C93.8,16.1,93.9,16.4,93.9,16.8z"/>
	<path class="st2" d="M97.8,8.1l-2.2,3.5l-0.9-0.3l1.2-4L97.8,8.1z"/>
</g>
<g>
	<path class="st3" d="M105.8,19.2l-1.3-3.6l-4,0.1l-1.3,3.5h-1.4L102,8.6l2.1-0.4l3.9,11H105.8z M104.2,14.6l-1.6-4.6l-1.7,4.6
		H104.2z"/>
	<path class="st3" d="M114.7,13.6c-0.3-0.1-0.6-0.3-1-0.4c-0.4-0.1-0.8-0.2-1.2-0.2c-0.2,0-0.4,0-0.5,0.1c-0.2,0-0.3,0.1-0.5,0.2
		c-0.1,0.1-0.3,0.3-0.3,0.7c-0.1,0.4-0.1,1-0.1,1.8c0,0.4,0,0.8,0.1,1.1c0.1,0.3,0.2,0.5,0.3,0.7c0.1,0.2,0.3,0.3,0.5,0.4
		s0.4,0.1,0.7,0.1c0.4,0,0.8,0,1.2-0.1c0.4-0.1,0.8-0.2,1.2-0.3l0.2,0.5c-0.4,0.3-0.9,0.6-1.4,0.8c-0.5,0.2-1.1,0.3-1.7,0.3
		c-0.5,0-0.9-0.1-1.3-0.2s-0.7-0.3-1-0.6c-0.3-0.3-0.5-0.6-0.7-1.1c-0.2-0.4-0.2-1-0.2-1.6s0.1-1.2,0.3-1.6c0.2-0.5,0.4-0.9,0.8-1.2
		c0.3-0.3,0.8-0.6,1.2-0.8c0.5-0.2,1.1-0.3,1.7-0.3c0.4,0,0.8,0,1.2,0.1c0.4,0.1,0.8,0.1,1.1,0.2L114.7,13.6z"/>
	<path class="st3" d="M123,18.1c0.2,0,0.4,0,0.7-0.1v0.5c-0.1,0.1-0.2,0.2-0.4,0.3c-0.2,0.1-0.3,0.2-0.5,0.3s-0.4,0.1-0.5,0.2
		c-0.2,0-0.4,0.1-0.6,0.1s-0.4,0-0.5-0.1s-0.3-0.1-0.4-0.2s-0.2-0.2-0.3-0.3s-0.1-0.2-0.2-0.3c-0.2,0.1-0.4,0.2-0.5,0.3
		s-0.4,0.2-0.5,0.3s-0.4,0.2-0.6,0.2c-0.2,0.1-0.4,0.1-0.7,0.1c-0.6,0-1-0.2-1.4-0.5c-0.3-0.3-0.5-0.9-0.5-1.6c0-0.4,0-0.7,0.2-1
		c0.1-0.3,0.3-0.5,0.5-0.7s0.5-0.3,0.9-0.4s0.8-0.1,1.3-0.2h1.3v-1c0-0.3-0.1-0.5-0.2-0.6c-0.2-0.1-0.4-0.2-0.8-0.2
		c-0.3,0-0.6,0-0.9,0.1c-0.4,0.1-0.7,0.2-1.1,0.3l-0.3-0.7c0.3-0.1,0.5-0.2,0.8-0.3s0.6-0.2,0.9-0.3s0.6-0.1,0.9-0.2
		c0.3,0,0.6-0.1,0.9-0.1s0.6,0,0.9,0.1s0.5,0.2,0.7,0.3s0.3,0.3,0.4,0.6s0.1,0.5,0.1,0.9V17C122.4,17.7,122.6,18.1,123,18.1z
		 M120.4,17.8c0,0,0-0.1,0-0.2s0-0.3,0-0.5s0-0.4,0-0.7c0-0.2,0-0.5,0-0.8c-0.5,0-0.9,0-1.2,0.1c-0.3,0.1-0.4,0.1-0.5,0.2
		c0,0-0.1,0.1-0.1,0.2s0,0.2-0.1,0.3c0,0.1,0,0.2,0,0.3s0,0.2,0,0.3c0,0.3,0,0.6,0.1,0.8c0.1,0.2,0.3,0.3,0.5,0.3s0.5,0,0.7-0.1
		S120.1,17.9,120.4,17.8z"/>
	<path class="st3" d="M129.5,12c0-0.1,0-0.2,0-0.3s0-0.2,0-0.3s0-0.2,0-0.2V7.5l2.1-0.4v12.1h-1.4l-0.6-0.7l0,0
		c-0.1,0.1-0.3,0.2-0.5,0.3c-0.2,0.1-0.3,0.2-0.5,0.3c-0.2,0.1-0.4,0.1-0.5,0.2c-0.2,0-0.4,0.1-0.6,0.1c-0.4,0-0.8-0.1-1.1-0.2
		c-0.4-0.1-0.7-0.3-1-0.6c-0.3-0.3-0.5-0.6-0.7-1.1c-0.2-0.4-0.3-1-0.3-1.6s0.1-1.2,0.2-1.6s0.4-0.9,0.7-1.2
		c0.3-0.3,0.7-0.6,1.1-0.8s0.9-0.3,1.5-0.3c0.2,0,0.5,0,0.7,0C129,12,129.2,12,129.5,12z M126.6,15.7c0,0.8,0.1,1.4,0.4,1.8
		s0.7,0.6,1.1,0.6c0.2,0,0.5,0,0.7-0.1s0.4-0.1,0.6-0.2v-4.7c-0.3-0.1-0.7-0.1-1-0.1s-0.6,0-0.8,0.1s-0.4,0.1-0.5,0.2
		c-0.1,0.1-0.2,0.4-0.4,0.8C126.7,14.5,126.6,15,126.6,15.7z"/>
	<path class="st3" d="M137.2,11.9c0.4,0,0.7,0,1,0.1s0.6,0.3,0.9,0.5c0.3,0.2,0.5,0.5,0.7,0.9s0.4,0.9,0.5,1.4V15
		c-0.1,0.1-0.2,0.2-0.3,0.2s-0.3,0.1-0.4,0.2c-0.2,0.1-0.4,0.1-0.7,0.1s-0.6,0.1-0.9,0.1l-2.4,0.2v0.3c0,0.3,0,0.5,0.1,0.8
		c0.1,0.2,0.2,0.4,0.3,0.6c0.2,0.2,0.3,0.3,0.6,0.4s0.5,0.1,0.8,0.1c0.2,0,0.5,0,0.8-0.1c0.3,0,0.5-0.1,0.8-0.2s0.5-0.1,0.7-0.2
		s0.4-0.1,0.5-0.2l0.2,0.5c-0.2,0.2-0.5,0.3-0.8,0.5s-0.6,0.3-0.9,0.5c-0.3,0.1-0.7,0.3-1,0.3c-0.4,0.1-0.7,0.1-1.1,0.1
		c-0.5,0-0.9-0.1-1.3-0.2c-0.4-0.1-0.7-0.3-1-0.6c-0.3-0.3-0.5-0.6-0.7-1.1s-0.2-1-0.2-1.6c0-0.7,0.1-1.3,0.3-1.8s0.4-0.9,0.8-1.2
		c0.3-0.3,0.7-0.5,1.2-0.7C136.2,12,136.7,11.9,137.2,11.9z M136.2,13.1c-0.1,0-0.1,0.1-0.2,0.3s-0.1,0.3-0.1,0.4
		c0,0.2-0.1,0.4-0.1,0.5c0,0.2,0,0.4,0,0.6l2.4-0.1c0-0.2-0.1-0.4-0.1-0.6c-0.1-0.2-0.1-0.4-0.2-0.6c-0.1-0.2-0.2-0.3-0.3-0.5
		c-0.1-0.1-0.3-0.2-0.5-0.2c-0.1,0-0.3,0-0.4,0S136.3,13,136.2,13.1z"/>
	<path class="st3" d="M146.8,19.2v-4.8c0-0.4-0.1-0.7-0.2-0.9c-0.1-0.2-0.4-0.3-0.7-0.3c-0.1,0-0.2,0-0.4,0c-0.1,0-0.3,0.1-0.4,0.1
		c-0.1,0.1-0.3,0.1-0.4,0.2c-0.1,0.1-0.3,0.2-0.4,0.2v5.4h-2.1V12h1.9l0.2,0.8l0,0c0.1-0.1,0.3-0.2,0.5-0.3s0.4-0.2,0.6-0.3
		c0.2-0.1,0.5-0.2,0.7-0.3c0.3-0.1,0.5-0.1,0.7-0.1c0.4,0,0.8,0.1,1.1,0.3s0.6,0.5,0.7,0.8c0.2-0.1,0.3-0.2,0.6-0.3
		c0.2-0.1,0.5-0.2,0.7-0.4c0.3-0.1,0.5-0.2,0.8-0.3s0.5-0.1,0.8-0.1s0.5,0,0.8,0.1c0.2,0.1,0.5,0.2,0.6,0.4c0.2,0.2,0.3,0.4,0.4,0.7
		c0.1,0.3,0.2,0.6,0.2,0.9v5.2h-2.1v-4.8c0-0.4-0.1-0.7-0.2-0.9c-0.1-0.2-0.4-0.3-0.7-0.3c-0.1,0-0.2,0-0.4,0
		c-0.1,0-0.3,0.1-0.4,0.1c-0.1,0.1-0.3,0.1-0.4,0.2c-0.1,0.1-0.3,0.2-0.4,0.2V19h-2.1L146.8,19.2L146.8,19.2z"/>
	<path class="st3" d="M156.9,22.6c-0.4,0.5-0.8,0.8-1.1,1c-0.4,0.2-0.8,0.3-1.2,0.3c-0.2,0-0.4,0-0.7,0s-0.4-0.1-0.6-0.1v-0.7h0.2
		c0.3,0,0.6-0.1,0.9-0.2c0.3-0.1,0.7-0.3,1-0.6c0.2-0.1,0.4-0.3,0.6-0.6c0.2-0.2,0.5-0.5,0.7-0.7c0.2-0.3,0.5-0.5,0.7-0.8
		s0.4-0.6,0.6-0.8c-0.3-0.8-0.6-1.6-0.9-2.3c-0.3-0.7-0.5-1.4-0.8-1.9c-0.2-0.6-0.5-1-0.7-1.4s-0.3-0.6-0.5-0.7
		c-0.1-0.1-0.2-0.2-0.3-0.2s-0.2,0-0.3,0h-0.1v-0.7c0.1,0,0.2,0,0.3-0.1c0.1,0,0.3,0,0.4-0.1c0.2,0,0.3,0,0.4,0c0.1,0,0.3,0,0.4,0
		c0.2,0,0.4,0,0.6,0.1c0.2,0.1,0.3,0.1,0.4,0.3c0.1,0.1,0.3,0.4,0.5,0.7s0.3,0.7,0.5,1.1c0.2,0.4,0.4,0.9,0.6,1.5
		c0.2,0.5,0.4,1.1,0.6,1.7l0,0c0.2-0.4,0.4-0.7,0.6-1.1s0.3-0.7,0.4-1c0.1-0.3,0.1-0.6,0.2-1s0.1-0.7,0.1-1c0-0.1,0-0.2,0-0.3
		s0-0.2,0-0.3s0-0.2-0.1-0.3c0-0.1,0-0.1-0.1-0.2l1.7-0.3c0,0.1,0.1,0.3,0.1,0.5s0.1,0.4,0.1,0.6c0,0.5-0.1,1-0.3,1.5
		s-0.4,1-0.7,1.6c-0.3,0.6-0.6,1-0.9,1.5s-0.7,1-1,1.5s-0.6,0.9-0.8,1.3c-0.2,0.3-0.4,0.6-0.6,0.9c-0.2,0.2-0.4,0.5-0.5,0.7
		C157.3,22.2,157.1,22.4,156.9,22.6z"/>
</g>
</svg>
